<?xml version="1.0" encoding="utf-8"?>
<!-- Generator: Adobe Illustrator 25.1.0, SVG Export Plug-In . SVG Version: 6.00 Build 0)  -->
<svg version="1.1" id="Logo_neu" xmlns="http://www.w3.org/2000/svg" xmlns:xlink="http://www.w3.org/1999/xlink" x="0px" y="0px"
	 viewBox="0 0 425.2 49.1" style="enable-background:new 0 0 425.2 49.1;" xml:space="preserve">
<style type="text/css">
	.st0{fill:#009EE3;}
</style>
<path class="st0" d="M373,48c1.1,0,2.9-0.9,2.9-2.8c0-1.6-1.4-3-2.9-3c-1.6,0-2.9,1.3-2.9,3C370.1,47.1,371.9,48,373,48"/>
<path class="st0" d="M394.7,42.1c-0.4,1.9-2.5,3.1-4.7,3.1c-3.5,0-7.2-2.9-7.2-10.7c0-7.1,3.6-9.7,6.5-9.7c2.5,0,5,1.7,5.4,5.2
	L394.7,42.1L394.7,42.1z M402.6,44.4c-3.5,0.3-3.5-0.8-3.5-2.9V11.8l-0.3-0.1c-2.5,0.9-5.1,1.6-7.7,2.3v0.8c0.4-0.1,0.9-0.1,1.3-0.1
	c2.3,0,2.3,1.1,2.3,2.7v8.2c-1.7-1.5-3.3-2.2-5.5-2.2c-5.9,0-10.8,6-10.8,12.9c0,10.7,7.5,11.7,9.5,11.7c3.9,0,5.8-1.9,6.7-3.3h0.1
	v3.2l0.2,0.2c2.8-1,5.2-1.8,7.7-2.7L402.6,44.4L402.6,44.4z"/>
<path class="st0" d="M424.4,38.8c-1.2,1.9-3.4,5.5-8.1,5.5c-3.4,0-7.7-2.1-8.3-11.4h16.3c-0.6-6.8-4.3-9.6-9.2-9.6
	c-4.2,0-10.7,3.2-10.7,12.9c0,7.4,4,11.7,9.8,11.7c7.5,0,10.6-7.1,11.1-8.7L424.4,38.8z M408.1,31.2c0.8-4.6,2.9-6,5.8-6
	c4.1,0,4.7,3.5,5,6H408.1z"/>
<path d="M123.6,49.1V31.6c0-2.7,2.3-3.4,4.5-3v-3.2h-21.6v3.2c3.2,0,6.3-0.9,6.3,4.4c0,8-3.1,12.9-10.1,12.9
	c-9.1,0-12.2-8.9-12.2-21.4c0-13.7,2.7-21.4,11.5-21.4c8.1,0,13.4,6.1,15.6,13.4h3.1l-1-16.6h-2.5c-0.3,1.9-1,3.4-2.8,3.4
	c-1.9,0-4.8-3.4-13.8-3.4C86.8,0,77.8,10.7,77.8,24.5c0,13.9,9,24.5,22.8,24.5c11.1,0,14-6.5,16.2-6.5c1.9,0,3.6,5,4.1,6.5
	L123.6,49.1L123.6,49.1z"/>
<path d="M170.2,48V32h-3.1c-2.3,11.8-7.5,13.1-16.6,13.1c-4.1,0-5.6-0.6-5.6-4.1V26.2c0-1.2,0.7-1,1.6-1c6.1,0,8.1,2.5,8.5,8.9h2.9
	V13.7h-3.1c0,7.1-3.4,8.5-8.9,8.5c-1.2,0-1,0-1-1.4v-14c0-2.7,3.3-2.8,7.6-2.8c13.2,0,13.6,10.9,13.6,11.4h3.1V1h-42v3.2
	c3.8,0,6.3-0.1,6.3,4.7v32.2c0,2.4-1.3,3.8-3.7,3.8h-2.5V48H170.2z"/>
<path d="M191.8,24.4c0.9-0.1,1.9-0.3,2.9-0.3c8.7,0,11.7,3.6,11.7,10.9c0,6.5-2.5,10.1-9.1,10.1c-6.3,0-5.5-1.6-5.5-7.4L191.8,24.4
	L191.8,24.4z M191.8,7.1c0-3.1,2.3-3.2,4.8-3.2c5.3,0,8.3,3.2,8.3,8.7c0,7.2-5.4,8.5-10.8,8.5c-1.1,0-1.7-0.1-2.3-0.2V7.1z
	 M174.6,48h24c15.8,0,20.6-6.9,20.6-13.2c0-6.2-5.3-10.5-13.2-11.8c-1.4-0.2-3.4-0.1-3.4-0.9c0-0.6,2.1-0.7,6.3-1.6
	c5.5-1.3,8.3-5,8.3-9.4c0-5.8-5.7-10.1-12.9-10.1h-29.6v3.2c1.7,0,5.7-0.5,5.7,2.6v33.6c0,4.9-1.8,4.5-5.7,4.5V48H174.6z"/>
<path d="M262.4,28.5h11.3c0.5,0,1.1,0,1.1-0.4c0-0.2-0.5-1.5-0.8-2.5l-4.5-12.9C268.4,9.5,268.4,9,268,9c-0.5,0-0.7,0.8-1.5,3.5
	l-4.1,12.9c-0.5,1.5-0.9,2.5-0.9,2.8S261.8,28.5,262.4,28.5 M331.6,1h37.6l0.4,18.6h-3.3c-0.1-6-2.9-15.6-10.1-15.6
	c-0.5,0-1.4,0.1-1.4,1.1v34.7c0,2.4,0.5,5.6,8.9,5.1V48h-29.4v-3.2c8.5,0.5,8.9-2.7,8.9-5.1V5.1c0-1-0.9-1.1-1.4-1.1
	c-7.1,0-9.9,9.6-10,15.6h-3.2c-0.1-6-2.9-15.6-10-15.6c-0.5,0-1.4,0.1-1.4,1.1v34.7c0,2.4,0.5,5.6,8.9,5.1V48h-54.3v-3.2
	c2.7,0,7.1,0.4,7.1-3.4c0-1.6-2.1-7.1-2.7-8.9c-0.3-0.9-0.7-0.8-1.7-0.8h-12.2c-1.5,0-2.1-0.1-2.4,0.9c-0.9,2.9-2,6.5-2,7.6
	c0,3.4,3.4,4.9,6.3,4.7V48h-44.5v-3.2h2.5c2.4,0,3.7-1.4,3.7-3.8V8.9c0-4.7-2.5-4.7-6.3-4.7V1h24.5v3.2c-5,0-6.7-0.5-6.7,5.1V41
	c0,0.9,0.1,1.6,0.3,2.2c0.3,0.7,0.9,1.2,1.7,1.5c0.9,0.3,2.9,0.3,4.1,0.2c6.7-0.8,8.5-2.6,10.7-7c0.2-0.5,0.5-1.2,0.5-1.2
	c0.6-1.3,0.8-1.8,1.3-3.5L267,1h10.7l12.9,37.4c1.9,5.5,4,6.4,5.6,6.5c0,0,3.1,0,3.6,0c5.7-0.3,6-3,6-5.1V5.1c0-1-0.9-1.1-1.4-1.1
	c-7.1,0-9.9,9.6-10.1,15.6H291L291.5,1h37.8H331.6z"/>
<path d="M47.2,28.5h11.3c0.5,0,1.1,0,1.1-0.4c0-0.2-0.5-1.5-0.8-2.5l-4.5-12.9c-1-3.2-1.1-3.7-1.4-3.7c-0.5,0-0.7,0.8-1.5,3.5
	l-4.1,12.9c-0.5,1.5-0.9,2.5-0.9,2.8C46.3,28.5,46.6,28.5,47.2,28.5 M35.1,48H5.8v-3.2c8.5,0.5,8.9-2.7,8.9-5.1V5.1
	c0-1-0.9-1.1-1.4-1.1c-7.1,0-9.9,9.5-10,15.6H0L0.4,1h40.1l0.4,18.6h-3.3C37.5,13.5,34.7,4,27.6,4c-0.5,0-1.4,0.1-1.4,1.1v34.7
	c0,2,0.3,4.7,5.6,5.1h0.4c2.5,0,5.7-2.3,8.8-11.7L51.8,1h10.6l12.9,37.4c2.6,7.5,5.5,6.5,6.7,6.5V48H56.7v-3.2
	c2.7,0,7.1,0.4,7.1-3.4c0-1.6-2.1-7.1-2.7-8.9c-0.3-0.9-0.7-0.8-1.7-0.8H47.1c-1.5,0-2.1-0.1-2.4,0.9c-0.9,2.9-2,6.5-2,7.6
	c0,3.4,3.4,4.9,6.3,4.7V48H35.1z"/>
</svg>
