<svg width="214" height="22" viewBox="0 0 214 22" fill="#fff" xmlns="http://www.w3.org/2000/svg">
    <path fill-rule="evenodd" clip-rule="evenodd" d="M194.667 9.40747C194.152 9.92295 193.102 10.7146 191.519 11.764C190.617 12.3347 189.66 12.6845 188.666 12.7581L178.632 12.7213H168.672L164.254 15.7589L173.606 15.7958H185.978C191.574 15.7958 195.643 14.7464 198.165 12.6292L201.958 9.4627C204.48 7.34555 204.314 6.29618 201.479 6.29618H183.787L186.659 4.12379C187.874 3.42421 189.273 3.07442 190.875 3.07442H197.097H200.117H210.169L213.795 0.0367681H202.989H190.488C186.254 -0.018462 183.069 0.902041 180.952 2.81668L176.736 6.13049C173.938 8.33969 173.735 9.44429 176.165 9.44429H194.667V9.40747Z"></path>
    <path fill-rule="evenodd" clip-rule="evenodd" d="M163.536 3.05611H166.555H176.607L180.326 0.0184575H169.427H156.926C152.692 -0.0367726 149.507 0.88373 147.39 2.79837L134.963 12.5005C134.54 12.8687 134.264 13.2185 134.098 13.4946C133.251 15.0226 135.239 15.7959 140.044 15.7959H152.434H160.848L164.769 12.703L155.141 12.7398L145.107 12.703C143.542 12.703 142.916 12.39 143.229 11.7456L153.116 4.08707C154.331 3.38749 155.73 3.0377 157.331 3.0377H163.536V3.05611Z"></path>
    <path fill-rule="evenodd" clip-rule="evenodd" d="M117.216 15.8142L106.538 15.851C101.733 15.8694 99.7636 15.0778 100.592 13.5314C100.758 13.2368 101.034 12.9054 101.457 12.5188L113.884 2.79833L117.456 0H124.93L119.573 4.10544L109.687 11.8008C109.374 12.4452 110 12.7582 111.564 12.7582H121.082L117.216 15.8142Z"></path>
    <path fill-rule="evenodd" clip-rule="evenodd" d="M140.137 0.0368652H147.078L143.543 3.05611L131.595 12.482L127.563 15.5933L123.402 18.7967C120.622 20.9322 117.603 22 114.345 22L0 21.9632L3.64519 19.5147L112.283 19.1465C114.474 19.1465 116.48 18.6678 118.027 17.5816L120.77 15.6854L124.305 12.6661L134.89 4.10548L140.137 0.0368652Z"></path>
    <path fill-rule="evenodd" clip-rule="evenodd" d="M106.134 3.07458H108.03L112.025 0.0185142H99.5245C95.2718 -0.0183058 91.9395 1.03107 89.5462 3.16663L77.5797 12.5742L73.3086 15.8511H80.691L85.809 11.8193L95.6952 4.12395C96.9102 3.42437 98.3094 3.07458 99.9111 3.07458H106.134Z"></path>
    <path fill-rule="evenodd" clip-rule="evenodd" d="M76.9169 4.63938L76.8985 4.67619L74.763 6.29628H63.8274L59.5747 9.51803H74.3395C76.6592 9.51803 78.7764 8.80004 80.691 7.34565L85.6985 3.07452C88.1655 1.03101 88.2207 0.0184571 85.8458 0.0184571H65.9998C61.7655 -0.036773 58.5806 0.883731 56.4634 2.81678L44.0551 12.5373C43.6316 12.9239 43.3555 13.2553 43.1898 13.5498C42.3429 15.0963 44.3312 15.8695 49.1362 15.8695H61.4893H69.9027L73.8241 12.7766L64.1956 12.8134L54.1622 12.7766C52.5973 12.7766 51.9714 12.4636 52.2843 11.8193L55.2115 9.55485L59.2801 6.3331L62.1521 4.16071C63.3672 3.46113 64.7663 3.11134 66.368 3.11134H76.604C78.7211 2.96406 78.8132 3.47954 76.9169 4.63938Z"></path>
    <path fill-rule="evenodd" clip-rule="evenodd" d="M36.6727 9.44439C36.1573 9.95987 35.1079 10.7515 33.5246 11.8009C32.6225 12.39 31.6652 12.7214 30.6711 12.795L20.6376 12.7582C19.0727 12.7582 18.4468 12.4452 18.7598 11.8009L21.8158 9.44439H32.4937L36.4334 6.29627H21.1347C19.4225 6.29627 17.9497 6.75653 16.7347 7.69544L10.5121 12.5373C10.0887 12.9239 9.8125 13.2553 9.64681 13.5498C8.79995 15.0963 10.7882 15.8695 15.5933 15.8695H27.9648C33.5614 15.8695 37.6301 14.8017 40.1522 12.6846L52.1556 3.09293C53.1497 1.04942 50.7564 0.0368652 44.9757 0.0368652H32.4752H26.2527L22.4602 3.09293H28.425H32.8803H39.1029H42.1221C43.2819 3.09293 43.7422 3.44272 43.5029 4.1423L40.6309 6.33309L36.6727 9.44439Z"></path>
</svg>