<svg width="459" height="198" viewBox="0 0 459 198" fill="none" 
xmlns="http://www.w3.org/2000/svg">
<path d="M423 54L377.6 198H341.8L315.5 111.3L289.3 198H253.5L208 
54H246.2L270.1 142.4L296.4 54H332.2L358.5 142.4L382.4 54H423Z" 
fill="#FD5B78"/>
<path d="M459 54H423V198H459V54Z" fill="#FD5B78"/>
<path d="M72 81C96.8 81 117 101.2 117 126C117 150.8 96.8 171 72 171C47.2 
171 27 150.8 27 126C27 101.2 47.2 81 72 81ZM72 54C32.2 54 0 86.2 0 126C0 
165.8 32.2 198 72 198C111.8 198 144 165.8 144 126C144 86.2 111.8 54 72 
54Z" fill="#315E9A"/>
<path d="M153 4.5H126V198H153V4.5Z" fill="#315E9A"/>
<path d="M207 54H153V81H207V54Z" fill="#315E9A"/>
<path d="M193.5 72H166.5V198H193.5V72Z" fill="#315E9A"/>
<path d="M413 18C413 22.9 414.3 27.5 416.5 31.5H216C203.6 31.5 193.5 41.6 
193.5 54V81H166.5V54C166.5 26.7 188.7 4.5 216 4.5H416.5C414.3 8.5 413 13.1 
413 18Z" fill="#315E9A"/>
<path d="M441 4.5V31.5H429.1C425.4 28.2 423 23.4 423 18C423 12.6 425.3 7.8 
429.1 4.5H441Z" fill="#315E9A"/>
<path d="M459 18C459 27.9 450.9 36 441 36C436.4 36 432.3 34.3 429.1 
31.5C425.4 28.2 423 23.4 423 18C423 12.6 425.3 7.8 429.1 4.5C432.3 1.7 
436.4 0 441 0C450.9 0 459 8 459 18Z" fill="#FD5B78"/>
</svg>

