<svg width="278" height="58" xmlns="http://www.w3.org/2000/svg" xmlns:xlink="http://www.w3.org/1999/xlink" xml:space="preserve" overflow="hidden"><defs><clipPath id="clip0"><rect x="501" y="331" width="278" height="58"/></clipPath></defs><g clip-path="url(#clip0)" transform="translate(-501 -331)"><path d="M523.904 345.163C523.904 345.163 530.864 346.804 532.176 347.129 537.271 348.198 540.94 352.663 541.001 357.87 541.132 365.041 536.73 370.943 532.473 374.345 526.245 379.324 520.183 379.867 516.916 379.43 507.198 378.131 506.545 369.633 506.535 368.543 506.421 366.279 506.8 364.018 507.645 361.914 507.877 361.311 508.077 359.809 506.611 360.024 505.425 360.382 504.459 361.25 503.978 362.392 502.777 365.161 502.104 368.131 501.994 371.147 501.981 371.383 501.969 371.656 501.969 371.953L501.969 372.061C501.989 376.926 504.83 389.175 520.829 388.986 526.229 388.922 541.486 385.521 548.717 368.574 550.05 365.256 550.589 361.673 550.289 358.109 548.65 344.624 536.693 343.184 535.643 343.027L526.98 341.717C526.226 343.082 525.176 344.259 523.906 345.163M518.132 343.134C517.653 343.994 517.396 345.254 518.641 345.576 520.676 346.098 523.416 344.024 524.126 343.168 526.414 340.414 524.489 339.797 523.956 339.766 523.874 339.762 523.791 339.76 523.707 339.76 520.897 339.76 518.6 342.289 518.132 343.131M532.1 331C532.061 331 532.017 331 531.974 331 530.17 331.133 528.389 331.491 526.672 332.063 522.443 333.362 513.881 337.77 509.352 344.939 505.022 352.055 508.243 354.917 509.365 355.702L516.405 360.623C516.156 361.285 515.535 364.757 519.072 365.318 522.006 365.785 524.565 363.286 525.021 362.71 526.098 361.523 526.657 359.955 526.573 358.354 526.467 357.266 525.786 356.318 524.788 355.87 522.7 354.891 520.265 356.222 520.184 356.267L512.549 352.228C511.484 351.605 510.09 350.529 510.689 347.469 510.84 346.706 511.835 342.827 517.63 338.461 518.307 337.949 523.668 333.967 529.38 333.832 530.535 333.714 531.607 333.178 532.395 332.326 532.787 331.911 533.209 331 532.1 331" fill="#FFFFFF"/><path d="M565.735 368.21C565.57 368.143 565.491 367.955 565.558 367.79 565.567 367.768 565.578 367.747 565.592 367.727L566.584 365.63C566.631 365.485 566.786 365.406 566.931 365.453 566.97 365.466 567.006 365.487 567.036 365.516 568.609 366.623 570.473 367.243 572.396 367.301 573.351 367.352 574.296 367.094 575.091 366.563 575.779 366.053 576.171 365.237 576.139 364.381 576.139 363.076 575.091 362.339 573.702 361.803 572.084 361.151 570.184 360.839 568.37 359.82 566.705 359.053 565.657 357.368 565.706 355.535 565.66 354.019 566.347 352.573 567.55 351.65 569.094 350.583 570.95 350.064 572.824 350.175 574.879 350.14 576.908 350.629 578.723 351.594 578.891 351.674 578.961 351.876 578.881 352.044 578.875 352.054 578.87 352.065 578.864 352.075L577.872 354.145C577.806 354.31 577.619 354.389 577.454 354.323 577.431 354.314 577.409 354.302 577.389 354.288 575.956 353.43 574.324 352.96 572.654 352.926 571.668 352.853 570.687 353.124 569.878 353.693 569.345 354.094 569.038 354.728 569.055 355.394 569.055 356.642 570.103 357.292 571.692 357.831 573.508 358.483 575.549 358.797 577.22 359.874 578.727 360.754 579.638 362.381 579.6 364.126 579.644 365.843 578.864 367.477 577.501 368.522 576.024 369.576 574.237 370.104 572.424 370.025 570.068 370.062 567.748 369.432 565.734 368.209" fill="#FFFFFF"/><path d="M591.908 350.43C593.542 350.343 595.152 350.846 596.446 351.847 597.982 353.099 598.843 354.998 598.771 356.979 598.831 359.041 597.892 361.006 596.249 362.254 594.942 363.173 593.362 363.622 591.767 363.529L586.918 363.529 586.918 369.399C586.916 369.586 586.765 369.737 586.578 369.739L584.083 369.739C583.896 369.737 583.744 369.586 583.741 369.399L583.741 350.798C583.743 350.605 583.891 350.445 584.083 350.43ZM594.121 353.946C593.343 353.427 592.419 353.168 591.484 353.208L586.922 353.208 586.922 360.75 591.262 360.75C592.23 360.801 593.194 360.575 594.038 360.098 595.043 359.387 595.611 358.208 595.54 356.979 595.628 355.79 595.091 354.642 594.123 353.946" fill="#FFFFFF"/><path d="M611.62 370.024C606.139 369.866 601.824 365.295 601.982 359.814 602.14 354.333 606.711 350.018 612.191 350.176 617.572 350.331 621.849 354.745 621.834 360.127 621.813 365.616 617.347 370.048 611.858 370.027 611.779 370.027 611.7 370.026 611.62 370.024M611.62 353.152C607.841 353.14 604.768 356.194 604.756 359.972 604.756 360.024 604.756 360.076 604.757 360.127 604.693 363.909 607.707 367.028 611.489 367.092 615.271 367.156 618.389 364.143 618.453 360.361 618.455 360.283 618.455 360.205 618.453 360.127 618.542 356.365 615.564 353.243 611.802 353.154 611.741 353.153 611.68 353.152 611.619 353.152" fill="#FFFFFF"/><path d="M636.321 362.34 641.056 369.144C641.226 369.426 641.282 369.739 640.886 369.739L638.134 369.739C637.851 369.78 637.574 369.63 637.455 369.37L632.893 362.621 628.635 362.621 628.635 369.399C628.633 369.586 628.482 369.737 628.295 369.739L625.799 369.739C625.612 369.736 625.462 369.586 625.459 369.399L625.459 350.798C625.46 350.606 625.608 350.446 625.799 350.43L633.769 350.43C635.451 350.318 637.125 350.734 638.559 351.619 640.081 352.779 640.931 354.615 640.832 356.526 640.894 358.343 640.07 360.077 638.621 361.176 637.947 361.723 637.164 362.12 636.325 362.34M628.635 353.124 628.635 359.958 633.229 359.958C634.257 360.036 635.286 359.831 636.204 359.363 637.153 358.758 637.688 357.677 637.592 356.556 637.693 355.447 637.182 354.371 636.26 353.748 635.416 353.272 634.45 353.055 633.483 353.125Z" fill="#FFFFFF"/><path d="M658.865 350.43C659.06 350.436 659.212 350.599 659.206 350.793 659.206 350.795 659.206 350.797 659.205 350.798L659.205 352.896C659.213 353.076 659.072 353.229 658.892 353.236 658.883 353.236 658.874 353.236 658.865 353.236L652.74 353.236 652.74 369.399C652.734 369.593 652.573 369.745 652.379 369.739 652.376 369.739 652.374 369.739 652.371 369.739L649.906 369.739C649.725 369.747 649.572 369.606 649.564 369.425 649.564 369.416 649.564 369.408 649.564 369.399L649.564 353.236 643.416 353.236C643.236 353.244 643.084 353.104 643.076 352.924 643.076 352.915 643.076 352.905 643.076 352.896L643.076 350.798C643.066 350.605 643.215 350.44 643.409 350.43 643.411 350.43 643.414 350.43 643.416 350.43Z" fill="#FFFFFF"/><path d="M672.422 350.43C672.614 350.445 672.762 350.605 672.764 350.798L672.764 369.4C672.76 369.587 672.609 369.738 672.422 369.74L669.927 369.74C669.74 369.738 669.589 369.587 669.586 369.4L669.586 350.798C669.587 350.606 669.735 350.445 669.927 350.43Z" fill="#FFFFFF"/><path d="M697.603 369.4C697.61 369.581 697.469 369.733 697.288 369.74 697.279 369.74 697.27 369.74 697.261 369.74L694.879 369.74C694.692 369.738 694.541 369.587 694.539 369.4L694.539 355.958 689.293 364.776C689.201 365.003 688.971 365.142 688.727 365.118L686.947 365.118C686.701 365.151 686.465 365.009 686.378 364.776L681.024 355.958 681.024 369.4C681.03 369.581 680.889 369.733 680.708 369.74 680.699 369.74 680.69 369.74 680.682 369.74L678.302 369.74C678.114 369.739 677.963 369.587 677.962 369.4L677.962 350.798C677.962 350.606 678.11 350.445 678.302 350.43L680.823 350.43C681.094 350.384 681.358 350.54 681.449 350.798L687.763 361.459 694.086 350.798C694.194 350.541 694.462 350.389 694.739 350.43L697.259 350.43C697.455 350.435 697.607 350.598 697.601 350.793 697.601 350.795 697.601 350.797 697.601 350.798Z" fill="#FFFFFF"/><path d="M711.016 350.43C712.65 350.344 714.26 350.847 715.555 351.847 717.09 353.1 717.95 354.999 717.878 356.979 717.937 359.041 716.998 361.006 715.356 362.254 714.049 363.173 712.469 363.622 710.874 363.529L706.025 363.529 706.025 369.399C706.023 369.586 705.872 369.737 705.685 369.739L703.192 369.739C703.005 369.738 702.853 369.586 702.852 369.399L702.852 350.798C702.852 350.606 703 350.445 703.192 350.43ZM713.229 353.946C712.451 353.426 711.526 353.168 710.591 353.208L706.03 353.208 706.03 360.75 710.369 360.75C711.338 360.801 712.301 360.575 713.146 360.098 714.15 359.387 714.719 358.208 714.648 356.979 714.735 355.79 714.199 354.642 713.231 353.946" fill="#FFFFFF"/><path d="M730.728 370.024C725.247 369.866 720.932 365.295 721.09 359.814 721.247 354.333 725.819 350.018 731.299 350.176 736.68 350.331 740.956 354.745 740.942 360.127 740.92 365.616 736.453 370.049 730.964 370.027 730.886 370.027 730.806 370.026 730.728 370.024M730.728 353.152C726.949 353.14 723.876 356.194 723.864 359.972 723.864 360.024 723.864 360.076 723.865 360.127 723.819 363.91 726.849 367.013 730.631 367.058 734.414 367.104 737.516 364.075 737.562 360.292 737.563 360.237 737.563 360.182 737.562 360.127 737.65 356.365 734.673 353.243 730.91 353.154 730.85 353.153 730.788 353.152 730.728 353.152" fill="#FFFFFF"/><path d="M755.149 362.34 759.884 369.144C760.054 369.426 760.11 369.739 759.715 369.739L756.963 369.739C756.68 369.78 756.404 369.63 756.284 369.37L751.716 362.621 747.464 362.621 747.464 369.399C747.462 369.587 747.31 369.738 747.122 369.739L744.627 369.739C744.44 369.737 744.289 369.586 744.287 369.399L744.287 350.798C744.287 350.606 744.435 350.445 744.627 350.43L752.597 350.43C754.28 350.318 755.954 350.734 757.389 351.619 758.907 352.78 759.755 354.615 759.656 356.524 759.719 358.341 758.894 360.075 757.445 361.174 756.771 361.721 755.988 362.118 755.149 362.338M747.464 353.121 747.464 359.955 752.058 359.955C753.086 360.033 754.115 359.827 755.033 359.36 755.982 358.755 756.517 357.674 756.421 356.553 756.522 355.444 756.011 354.368 755.089 353.745 754.245 353.269 753.279 353.052 752.312 353.122Z" fill="#FFFFFF"/><path d="M777.689 350.43C777.884 350.436 778.036 350.599 778.029 350.793 778.029 350.795 778.029 350.797 778.029 350.798L778.029 352.896C778.036 353.076 777.897 353.229 777.716 353.236 777.707 353.236 777.698 353.236 777.689 353.236L771.564 353.236 771.564 369.399C771.558 369.593 771.397 369.745 771.203 369.739 771.2 369.739 771.198 369.739 771.195 369.739L768.729 369.739C768.548 369.747 768.395 369.606 768.387 369.425 768.387 369.416 768.387 369.408 768.387 369.399L768.387 353.236 762.239 353.236C762.059 353.244 761.907 353.104 761.899 352.924 761.899 352.915 761.899 352.905 761.899 352.896L761.899 350.798C761.889 350.605 762.038 350.44 762.231 350.43 762.234 350.43 762.236 350.43 762.239 350.43Z" fill="#FFFFFF"/></g></svg>