<svg xmlns="http://www.w3.org/2000/svg" xml:space="preserve" fill="#fff" preserveAspectRatio="xMinYMin meet" viewBox="0 0 462.6 168.4">
  <path d="M129 131.1h-7.3L117 94.4c-.1-.4-.1-.8-.2-1.3 0-.5-.1-1-.2-1.4-.1-.5-.1-1-.2-1.5-.3.6-.6 1.3-.9 1.8-.2.5-.4 1-.7 1.6-.3.5-.4.9-.6 1.2l-16.8 36.3h-7.2l-4-54.8h7.2l2.1 41.5c0 .4 0 .9.1 1.3 0 .5.1.9.1 1.3 0 .5 0 1 .1 1.5.2-.6.5-1.1.8-1.6.2-.4.4-.9.6-1.3.2-.5.3-.9.5-1.2L116 76.3h5.3l4.3 41.5c.1.6.1 1.1.2 1.6 0 .5.1.9.2 1.3s.1.9.1 1.3c.1-.4.3-.9.5-1.4.1-.4.3-.9.5-1.3.2-.5.4-.9.6-1.4l16.1-41.5h7.5L129 131.1zM168.4 132.3c-3 0-5.7-.6-8.1-1.8-2.4-1.2-4.4-2.8-6.1-4.9-1.6-2.1-2.9-4.5-3.8-7.3-.9-2.8-1.3-5.8-1.3-9 0-4.9.7-9.5 2-13.7 1.4-4.2 3.3-7.8 5.7-10.9 2.4-3 5.3-5.4 8.6-7.2 3.3-1.7 6.9-2.6 10.7-2.6 2.7 0 5.2.4 7.5 1.1 2.3.8 4.2 1.9 5.9 3.6 1.6 1.6 2.9 3.7 3.9 6.3.9 2.5 1.4 5.6 1.4 9.3 0 2.4-.2 4.4-.6 6.3-.4 1.8-.9 3.6-1.4 5.2h-35.9v1.5c0 5.4 1 9.6 3.1 12.6 2 3 5.1 4.6 9.3 4.6 1.9 0 3.9-.3 6.1-1 2.1-.6 4.3-1.7 6.6-3.3l3.3 5.5c-2.4 1.8-5 3.2-7.8 4.2-3 1-6 1.5-9.1 1.5zm7.8-50.5c-2.6 0-5 .5-7.1 1.6-2.1 1.1-3.9 2.5-5.4 4.2-1.5 1.7-2.7 3.7-3.7 5.8-1 2.2-1.7 4.4-2.2 6.6h28.9c.5-1.9.7-3.7.7-5.4 0-2.6-.3-4.7-1-6.3-.7-1.6-1.6-2.9-2.6-3.9-1.1-1-2.3-1.6-3.6-2-1.3-.4-2.6-.6-4-.6zM220.1 132.3c-3.4 0-6.3-.7-8.7-2.1-2.4-1.4-4.1-2.8-5.4-4.2l-.9 5h-7.5l13.1-74.2 8-3.2-4.8 27c1.6-1.4 3.6-2.6 5.9-3.9 2.4-1.2 5.3-1.8 8.6-1.8 2.6 0 5.1.5 7.2 1.5 2.2 1 4.1 2.4 5.6 4.3 1.6 1.9 2.8 4.1 3.7 6.8.9 2.6 1.3 5.6 1.3 8.9 0 5.5-.6 10.4-1.9 14.8-1.3 4.4-3.1 8.2-5.5 11.3-2.4 3.1-5.1 5.6-8.4 7.2-2.9 1.8-6.4 2.6-10.3 2.6zm-.4-6.7c3.2 0 6-.8 8.4-2.3 2.4-1.5 4.4-3.5 6-6.1 1.6-2.6 2.8-5.6 3.6-9.1.8-3.5 1.2-7.2 1.2-11.2 0-4.7-1-8.4-3.1-11.1-2-2.7-5-4.1-8.8-4.1-2.9 0-5.7.8-8.3 2.4-2.6 1.6-4.7 3.4-6.3 5.5l-4.9 28c1 2.1 2.5 3.9 4.6 5.6 2.1 1.6 4.6 2.4 7.6 2.4z"/>
  <path d="m291.9 131.1-10.6-24.5-19.1 24.5h-17.8L275 91.7 259.8 56h16.3l9.4 22.2L302.9 56h17.8l-28.8 37 16.4 38h-16.4z"/>
  <path d="M333.7 132.3c-3.4 0-6.5-.5-9.3-1.5-2.8-1-5.2-2.5-7.2-4.4-2-2-3.6-4.4-4.7-7.3-1.1-2.9-1.7-6.3-1.7-10.1 0-4.2.7-8.4 2-12.4 1.4-4.1 3.3-7.7 5.9-10.9 2.6-3.2 5.8-5.8 9.5-7.7 3.8-2 8.1-2.9 13.1-2.9 6.8 0 11.9 1.9 15.3 5.8 3.4 3.9 5.1 9.3 5.1 16.2 0 4.2-.7 8.3-2 12.1H325v1.1c0 1.6.3 3.1.9 4.3.6 1.2 1.3 2.3 2.3 3.1 1 .9 2.1 1.5 3.4 1.9 1.3.4 2.6.6 4 .6 2.2 0 4.4-.5 6.6-1.6 2.2-1.1 4.1-2.4 5.7-4.1l7.1 9c-2.7 2.8-5.7 5-9.1 6.5-3.4 1.6-7.4 2.3-12.2 2.3zm5.7-45.1c-3.1 0-5.8.8-7.9 2.5-2.1 1.6-3.6 4.2-4.5 7.6h21.6c0-.5 0-1-.1-1.4 0-.4-.1-.8-.2-1.2-.5-2.6-1.6-4.6-3.2-5.7-1.4-1.2-3.4-1.8-5.7-1.8zM360.6 131.1l12.8-72.8 14.7-4.6-13.7 77.4h-13.8zM382.9 131.1l12.8-72.8 14.7-4.6-13.7 77.4h-13.8zM439.5 91.4c-.8-1.1-1.9-2.1-3.4-3.2s-3.5-1.6-6-1.6c-2.1 0-3.8.4-5 1.3s-1.9 2-1.9 3.4c0 1 .6 1.9 1.8 2.7 1.2.8 2.6 1.6 4.4 2.5 1.7.9 3.6 1.8 5.7 2.8 2 1 3.9 2.2 5.7 3.5 1.7 1.4 3.2 3 4.4 4.8 1.2 1.9 1.8 4.1 1.8 6.6 0 5.6-2 10.1-6.1 13.3-4.1 3.2-9.7 4.8-16.8 4.8-2.2 0-4.4-.3-6.5-.8-2.1-.5-4.1-1.2-5.9-2-1.8-.9-3.4-1.9-4.8-3.2-1.4-1.2-2.5-2.6-3.3-4.1l10-7.6c.4.6 1 1.2 1.7 1.9s1.6 1.3 2.5 1.9c1 .6 2.1 1.1 3.4 1.5 1.3.4 2.7.6 4.3.6 2 0 3.8-.4 5.4-1.2 1.6-.8 2.4-2 2.4-3.8 0-1.1-.6-2.1-1.7-3-1.1-.9-2.6-1.7-4.3-2.6l-5.6-2.8c-2-1-3.9-2.1-5.6-3.4-1.8-1.3-3.2-2.9-4.3-4.8-1.1-1.9-1.7-4.1-1.7-6.6 0-2.7.6-5.1 1.7-7.3 1.1-2.1 2.6-4 4.6-5.5 1.9-1.5 4.2-2.6 6.9-3.4 2.7-.8 5.6-1.2 8.7-1.2 2.2 0 4.3.3 6.2.8 1.9.5 3.7 1.2 5.3 2.1 1.6.9 2.9 1.8 4.1 2.8 1.2 1 2.1 2.1 2.7 3.1l-10.8 7.7z"/>
  <path d="M249.5 168.4c-.9 0-1.6-.3-2-.9-.4-.6-.6-1.3-.6-2.1v-8.8h-2.2V155h2.2v-4.5l1.8-.9v5.4h3.3v1.6h-3.3v8.9c0 .2.1.5.2.7.1.2.2.3.4.5.2.1.4.2.7.2.4 0 .8-.1 1.1-.3.3-.2.6-.3.8-.5l-.2 1.9c-.3.2-.7.3-1.1.4h-1.1zM259.6 154.7c1.6 0 2.8.5 3.6 1.5.8 1 1.1 2.5 1.1 4.7v7.3h-1.8v-8c0-1.4-.3-2.4-.9-2.9-.6-.6-1.3-.9-2.2-.9-.5 0-.9.1-1.3.2s-.7.3-1 .6c-.3.3-.5.7-.7 1.2-.2.5-.2 1.1-.2 1.8v8.1h-1.8v-17.7l1.8-.8v6.9c.4-.6.9-1 1.5-1.3.5-.6 1.2-.7 1.9-.7zM268.5 162.3c.2 1.3.6 2.4 1.2 3.2.7.8 1.5 1.2 2.7 1.2.5 0 1-.1 1.5-.2.5-.2 1-.4 1.5-.8l1 1.2c-.5.4-1.1.8-1.8 1.1-.7.3-1.4.4-2.2.4-.9 0-1.7-.2-2.4-.6-.7-.4-1.3-.9-1.8-1.5s-.9-1.4-1.1-2.2-.4-1.7-.4-2.6c0-1.1.1-2.1.4-2.9.3-.8.7-1.6 1.2-2.1.5-.6 1.1-1 1.8-1.3.7-.3 1.5-.5 2.3-.5.7 0 1.4.1 2 .4.6.2 1.2.6 1.7 1.1.5.5.9 1.2 1.1 2 .3.8.4 1.8.4 2.9v.5c0 .2 0 .5-.1.7h-9zm3.8-6c-1.1 0-2 .4-2.7 1.1-.7.7-1.1 1.8-1.2 3.3h7.2c0-.9-.1-1.6-.3-2.2-.2-.6-.5-1-.8-1.3-.3-.3-.7-.5-1.1-.7-.4-.1-.8-.2-1.1-.2zM286.2 156.4c.4-.6.9-1 1.5-1.3.6-.3 1.2-.4 1.9-.4 1.6 0 2.8.5 3.6 1.5.8 1 1.1 2.5 1.1 4.7v7.3h-1.8v-8c0-1.4-.3-2.4-.9-2.9-.6-.6-1.3-.9-2.2-.9-.5 0-.9.1-1.3.2s-.7.3-1 .6c-.3.3-.5.7-.7 1.2-.2.5-.2 1.1-.2 1.8v8.1h-1.8V155h1.8v1.4zM298.6 162.3c.2 1.3.6 2.4 1.2 3.2.7.8 1.5 1.2 2.7 1.2.5 0 1-.1 1.5-.2.5-.2 1-.4 1.5-.8l1 1.2c-.5.4-1.1.8-1.8 1.1-.7.3-1.4.4-2.2.4-.9 0-1.7-.2-2.4-.6-.7-.4-1.3-.9-1.8-1.5s-.9-1.4-1.1-2.2-.4-1.7-.4-2.6c0-1.1.1-2.1.4-2.9.3-.8.7-1.6 1.2-2.1.5-.6 1.1-1 1.8-1.3s1.5-.5 2.3-.5c.7 0 1.4.1 2 .4.6.2 1.2.6 1.7 1.1.5.5.9 1.2 1.1 2 .3.8.4 1.8.4 2.9v.5c0 .2 0 .5-.1.7h-9zm3.8-6c-1.1 0-2 .4-2.7 1.1-.7.7-1.1 1.8-1.2 3.3h7.2c0-.9-.1-1.6-.3-2.2-.2-.6-.5-1-.8-1.3-.3-.3-.7-.5-1.1-.7-.4-.1-.8-.2-1.1-.2zM314.3 161.3l4.4 6.8h-2.1l-3.5-5.4-3.4 5.4h-1.9l4.4-6.7-4.1-6.4h2.1l3.2 5 3-5h1.9l-4 6.3zM323.8 168.4c-.9 0-1.6-.3-2-.9s-.6-1.3-.6-2.1v-8.8H319V155h2.2v-4.5l1.8-.9v5.4h3.3v1.6H323v8.9c0 .2.1.5.2.7.1.2.2.3.4.5.2.1.4.2.7.2.4 0 .8-.1 1.1-.3.3-.2.6-.3.8-.5l-.2 1.9c-.3.2-.7.3-1.1.4h-1.1zM333.4 168.1v-17.7l1.8-.9v18.6h-1.8zM339.7 162.3c.2 1.3.6 2.4 1.2 3.2.7.8 1.5 1.2 2.7 1.2.5 0 1-.1 1.5-.2.5-.2 1-.4 1.5-.8l1 1.2c-.5.4-1.1.8-1.8 1.1-.7.3-1.4.4-2.2.4-.9 0-1.7-.2-2.4-.6-.7-.4-1.3-.9-1.8-1.5s-.9-1.4-1.1-2.2-.4-1.7-.4-2.6c0-1.1.1-2.1.4-2.9.3-.8.7-1.6 1.2-2.1.5-.6 1.1-1 1.8-1.3s1.5-.5 2.3-.5c.7 0 1.4.1 2 .4.6.2 1.2.6 1.7 1.1.5.5.9 1.2 1.1 2 .3.8.4 1.8.4 2.9v.5c0 .2 0 .5-.1.7h-9zm3.8-6c-1.1 0-2 .4-2.7 1.1-.7.7-1.1 1.8-1.2 3.3h7.2c0-.9-.1-1.6-.3-2.2-.2-.6-.5-1-.8-1.3-.3-.3-.7-.5-1.1-.7-.4-.1-.7-.2-1.1-.2zM355.8 168.1h-1.3l-4.8-13.1h1.9l3.7 10.3 3.6-10.3h1.8l-4.9 13.1zM363 162.3c.2 1.3.6 2.4 1.2 3.2.7.8 1.5 1.2 2.7 1.2.5 0 1-.1 1.5-.2.5-.2 1-.4 1.5-.8l1 1.2c-.5.4-1.1.8-1.8 1.1-.7.3-1.4.4-2.2.4-.9 0-1.7-.2-2.4-.6-.7-.4-1.3-.9-1.8-1.5s-.9-1.4-1.1-2.2c-.3-.8-.4-1.7-.4-2.6 0-1.1.1-2.1.4-2.9.3-.8.7-1.6 1.2-2.1.5-.6 1.1-1 1.8-1.3.7-.3 1.5-.5 2.3-.5.7 0 1.4.1 2 .4.6.2 1.2.6 1.7 1.1.5.5.9 1.2 1.1 2 .3.8.4 1.8.4 2.9v.5c0 .2 0 .5-.1.7h-9zm3.8-6c-1.1 0-2 .4-2.7 1.1-.7.7-1.1 1.8-1.2 3.3h7.2c0-.9-.1-1.6-.3-2.2-.2-.6-.5-1-.8-1.3-.3-.3-.7-.5-1.1-.7-.3-.1-.7-.2-1.1-.2zM374.5 168.1v-17.7l1.8-.9v18.6h-1.8zM389.1 154.7c.8 0 1.6.2 2.3.5.7.3 1.3.8 1.8 1.3.5.6.9 1.3 1.1 2.1.3.8.4 1.8.4 2.9 0 1.1-.1 2-.4 2.9-.3.9-.7 1.6-1.1 2.2-.5.6-1.1 1-1.8 1.4-.7.3-1.5.5-2.3.5-.8 0-1.6-.2-2.3-.5-.7-.3-1.3-.8-1.8-1.3-.5-.6-.9-1.3-1.1-2.1-.3-.8-.4-1.8-.4-2.9 0-1.1.1-2 .4-2.9.3-.8.7-1.6 1.1-2.2.5-.6 1.1-1 1.8-1.4.7-.4 1.5-.5 2.3-.5zm0 12.1c1.2 0 2.1-.5 2.8-1.4.7-.9 1-2.2 1-3.9 0-1.6-.3-2.9-1-3.9-.6-.9-1.6-1.4-2.8-1.4-1.2 0-2.2.5-2.8 1.4-.6.9-1 2.2-1 3.9 0 1.6.3 2.9 1 3.9.7.9 1.6 1.4 2.8 1.4zM399.6 156.6v11.5h-1.8v-11.5h-2.1V155h2.1v-2.2c0-.5.1-1 .2-1.4.2-.4.4-.7.6-.9.3-.2.5-.4.9-.5.3-.1.7-.2 1-.2.5 0 .9.1 1.3.2s.7.3 1 .4v1.6c-.3-.1-.6-.3-.9-.4-.3-.1-.6-.2-1-.2-.3 0-.6 0-.7.1-.2.1-.3.2-.4.4-.1.1-.1.3-.1.5v2.5h3.2v1.6h-3.3zM420.6 168.1H419l-3.2-9.6-3.1 9.6H411l-3.2-13.1h1.8l2.5 10.8 3.1-10.8h1.2l3.2 11 2.4-11h1.8l-3.2 13.1zM426.7 162.3c.2 1.3.6 2.4 1.2 3.2.7.8 1.5 1.2 2.7 1.2.5 0 1-.1 1.5-.2.5-.2 1-.4 1.5-.8l1 1.2c-.5.4-1.1.8-1.8 1.1-.7.3-1.4.4-2.2.4-.9 0-1.7-.2-2.4-.6-.7-.4-1.3-.9-1.8-1.5s-.9-1.4-1.1-2.2c-.3-.8-.4-1.7-.4-2.6 0-1.1.1-2.1.4-2.9.3-.8.7-1.6 1.2-2.1.5-.6 1.1-1 1.8-1.3.7-.3 1.5-.5 2.3-.5.7 0 1.4.1 2 .4.6.2 1.2.6 1.7 1.1.5.5.9 1.2 1.1 2 .3.8.4 1.8.4 2.9v.5c0 .2 0 .5-.1.7h-9zm3.8-6c-1.1 0-2 .4-2.7 1.1-.7.7-1.1 1.8-1.2 3.3h7.2c0-.9-.1-1.6-.3-2.2-.2-.6-.5-1-.8-1.3-.3-.3-.7-.5-1.1-.7-.4-.1-.7-.2-1.1-.2zM443.5 168.4c-.5 0-.9 0-1.2-.1-.4-.1-.7-.2-1-.3-.3-.1-.5-.3-.8-.5-.2-.2-.5-.4-.7-.5v1.2H438v-17.7l1.8-.9v6.7c.4-.5 1-.8 1.6-1.1.6-.3 1.3-.5 1.9-.5.8 0 1.6.2 2.2.5.7.3 1.2.8 1.7 1.4.5.6.8 1.3 1.1 2.2.3.8.4 1.8.4 2.9 0 2.2-.5 4-1.4 5.1s-2.1 1.6-3.8 1.6zm-.3-1.6c1.2 0 2.2-.5 2.8-1.4.6-.9.9-2.2.9-3.9 0-1.7-.3-3-.9-3.9-.6-.9-1.5-1.4-2.8-1.4-.4 0-.8.1-1.1.2-.4.1-.7.3-1 .5-.3.2-.5.4-.8.7-.2.2-.4.5-.5.7v6.5c.4.6.8 1.1 1.5 1.5.6.3 1.3.5 1.9.5z"/>
  <path d="M457.2 64.8c-.8 0-1.5-.1-2.1-.4-.7-.3-1.2-.7-1.7-1.1-.5-.5-.9-1.1-1.1-1.7s-.4-1.4-.4-2.1.1-1.5.4-2.1c.3-.7.7-1.2 1.1-1.7.5-.5 1.1-.9 1.7-1.1s1.4-.4 2.1-.4c.8 0 1.5.1 2.1.4s1.2.7 1.7 1.1c.5.5.9 1.1 1.1 1.7.3.7.4 1.4.4 2.1s-.1 1.5-.4 2.1c-.3.7-.7 1.2-1.1 1.7-.5.5-1.1.9-1.7 1.1-.7.3-1.4.4-2.1.4zm0-.8c.7 0 1.3-.1 1.8-.4.6-.2 1-.6 1.4-1 .4-.4.7-.9.9-1.5.2-.6.3-1.2.3-1.8 0-.7-.1-1.3-.3-1.8-.2-.6-.5-1-.9-1.5-.4-.4-.9-.7-1.4-1-.6-.2-1.2-.4-1.8-.4-.7 0-1.3.1-1.8.4-.6.2-1 .6-1.4 1-.4.4-.7.9-1 1.5-.2.6-.3 1.2-.3 1.8 0 .7.1 1.3.3 1.8.2.6.6 1 1 1.5.4.4.9.7 1.4 1 .5.3 1.1.4 1.8.4zm-2.3-1.4v-6.3h3.1c.3 0 .6.1.8.2.2.1.4.3.5.5l.3.6c.1.2.1.4.1.6 0 .5-.1.9-.4 1.2-.3.4-.7.6-1.2.7l1.5 2.6h-1.1l-1.4-2.6h-1.3v2.6h-.9zm3.1-3.4c.2 0 .4-.1.6-.3.1-.2.2-.5.2-.8v-.3c0-.1-.1-.2-.1-.3-.1-.1-.1-.2-.2-.2-.1-.1-.2-.1-.3-.1H456v2h2z"/>
  <path d="m49.9 45.9 40.4-14.7L95 44.1l-33 12-6.1 34.5-13.4-2.4z"/>
  <path d="m47.1 38.1 40.4-14.7-4.7-12.8-33 12L22.9 0l-8.8 10.5zM8.8 16.9 0 27.3l26.9 22.6-6.1 34.5 13.4 2.4 7.5-42.3z"/>
</svg>
