<svg width="178" height="42" viewBox="0 0 178 42" fill="none" xmlns="http://www.w3.org/2000/svg">
<g clip-path="url(#clip0_616_1951)">
<path d="M21 42C32.598 42 42 32.598 42 21C42 9.40202 32.598 0 21 0C9.40202 0 0 9.40202 0 21C0 32.598 9.40202 42 21 42Z" fill="#47E1AE"/>
<path d="M18.5252 25.6391C18.5252 25.8388 18.5252 25.8388 18.5252 25.6391L12.9337 40.2171C8.14087 38.2201 4.14689 34.2262 1.9502 29.2337L16.7279 23.8418L18.5252 25.6391Z" fill="url(#paint0_linear_616_1951)"/>
<path d="M17.1034 15.8042L12.124 20.7836L20.5673 29.4434L22.5158 27.7114L25.1137 25.33L28.5776 20.7836L30.5261 15.8042V11.2578L27.7116 11.2578L21.8663 12.5568L17.1034 15.8042Z" fill="url(#paint1_linear_616_1951)"/>
<path d="M22.5636 17.7494C22.9636 17.7494 23.3636 17.8827 23.6303 18.216C24.2303 18.816 24.2303 19.7494 23.6303 20.3494C23.3636 20.616 22.9636 20.816 22.5636 20.816C22.1636 20.816 21.7636 20.6827 21.4969 20.3494C20.8969 19.7494 20.8969 18.816 21.4969 18.216C21.8303 17.9494 22.1636 17.7494 22.5636 17.7494ZM22.5636 16.2827C21.7636 16.2827 21.0303 16.616 20.4303 17.1494C19.2303 18.3494 19.2303 20.216 20.4303 21.416C20.9636 21.9494 21.7636 22.2827 22.5636 22.2827C23.3636 22.2827 24.0969 21.9494 24.6969 21.416C25.2303 20.8827 25.5636 20.0827 25.5636 19.2827C25.5636 18.4827 25.2303 17.7494 24.6969 17.1494C24.0969 16.616 23.3636 16.2827 22.5636 16.2827Z" fill="#0D265A"/>
<path d="M22.8616 28.3769C22.567 28.6714 22.0895 28.6714 21.7949 28.3769V28.3769C21.5004 28.0823 21.5004 27.6048 21.7949 27.3102L25.5283 23.5769C28.7949 20.3102 29.3949 14.3102 29.5283 12.1769C27.3949 12.3102 21.3283 12.9102 18.1283 16.1769L14.3949 19.9102C14.1004 20.2048 13.6228 20.2048 13.3283 19.9102V19.9102C13.0337 19.6157 13.0337 19.1381 13.3283 18.8436L17.0616 15.1102C21.4616 10.7102 29.9283 10.6436 30.3283 10.6436H31.0616V11.3769C31.0616 11.7102 30.9949 20.2436 26.5949 24.6436L22.8616 28.3769Z" fill="#0D265A"/>
<path d="M19.5938 33.613C20.7938 32.613 21.0604 32.0796 19.7938 30.8796L17.4604 28.4796C16.3271 27.3463 16.2604 26.4796 16.7271 25.5463C15.7938 26.013 14.9271 25.9463 13.7938 24.813L11.3938 22.4796C10.1938 21.2796 9.66042 21.4796 8.66042 22.6796L7.59375 21.613C9.06042 19.813 10.7271 19.6796 12.4604 21.3463L14.7938 23.6796C15.9938 24.8796 16.7271 24.5463 17.6604 23.613L18.5938 24.5463C17.6604 25.4796 17.2604 26.213 18.5271 27.413L20.8604 29.7463C22.5271 31.413 22.3938 33.0796 20.5938 34.613L19.5938 33.613Z" fill="#0D265A"/>
</g>
<path d="M60.38 14.89L54.34 21.75L54.12 21.53L50.82 25.27L50.4 22.71L57.18 14.89H60.38ZM51.76 14.89V28.09H49V14.89H51.76ZM55.1 19.45L60.54 28.09H57.38L52.98 20.99L55.1 19.45Z" fill="white"/>
<path d="M64.4342 14.89V28.09H61.6742V14.89H64.4342Z" fill="white"/>
<path d="M78.2656 24.45C78.0123 25.3033 77.6123 26.0166 77.0656 26.59C76.519 27.1633 75.8723 27.59 75.1256 27.87C74.379 28.15 73.559 28.29 72.6656 28.29C71.359 28.29 70.2256 28.0166 69.2656 27.47C68.319 26.9233 67.5856 26.1433 67.0656 25.13C66.559 24.1166 66.3056 22.9033 66.3056 21.49C66.3056 20.0766 66.559 18.8633 67.0656 17.85C67.5856 16.8366 68.319 16.0566 69.2656 15.51C70.2256 14.9633 71.3456 14.69 72.6256 14.69C73.5323 14.69 74.3523 14.8166 75.0856 15.07C75.819 15.31 76.439 15.6833 76.9456 16.19C77.4656 16.6966 77.8456 17.3366 78.0856 18.11L75.5856 19.17C75.359 18.37 75.0123 17.8033 74.5456 17.47C74.079 17.1233 73.479 16.95 72.7456 16.95C72.0256 16.95 71.3923 17.1233 70.8456 17.47C70.3123 17.8166 69.899 18.33 69.6056 19.01C69.3123 19.6766 69.1656 20.5033 69.1656 21.49C69.1656 22.4633 69.299 23.29 69.5656 23.97C69.8456 24.65 70.2523 25.1633 70.7856 25.51C71.319 25.8566 71.9723 26.03 72.7456 26.03C73.4656 26.03 74.0856 25.8366 74.6056 25.45C75.139 25.0633 75.5123 24.4766 75.7256 23.69L78.2656 24.45Z" fill="white"/>
<path d="M91.098 14.89L85.058 21.75L84.838 21.53L81.538 25.27L81.118 22.71L87.898 14.89H91.098ZM82.478 14.89V28.09H79.718V14.89H82.478ZM85.818 19.45L91.258 28.09H88.098L83.698 20.99L85.818 19.45Z" fill="white"/>
<path d="M95.9169 28.29C94.9035 28.29 93.9769 28.11 93.1369 27.75C92.3102 27.39 91.6369 26.8833 91.1169 26.23L92.6969 24.63C93.0169 25.11 93.4435 25.5033 93.9769 25.81C94.5102 26.1166 95.1435 26.27 95.8769 26.27C96.3969 26.27 96.8102 26.1966 97.1169 26.05C97.4369 25.89 97.5969 25.6433 97.5969 25.31C97.5969 25.0966 97.5235 24.9166 97.3769 24.77C97.2302 24.61 96.9369 24.4833 96.4969 24.39L94.7369 24.03C93.5769 23.79 92.7502 23.43 92.2569 22.95C91.7769 22.4566 91.5369 21.8233 91.5369 21.05C91.5369 20.5033 91.6969 19.99 92.0169 19.51C92.3502 19.03 92.8435 18.6433 93.4969 18.35C94.1502 18.0433 94.9635 17.89 95.9369 17.89C96.9369 17.89 97.8035 18.05 98.5369 18.37C99.2835 18.6766 99.8702 19.1366 100.297 19.75L98.6569 21.35C98.3635 20.8833 97.9769 20.53 97.4969 20.29C97.0302 20.0366 96.5369 19.91 96.0169 19.91C95.6435 19.91 95.3235 19.95 95.0569 20.03C94.7902 20.11 94.5902 20.2233 94.4569 20.37C94.3235 20.5033 94.2569 20.6766 94.2569 20.89C94.2569 21.1033 94.3502 21.29 94.5369 21.45C94.7235 21.5966 95.0635 21.7233 95.5569 21.83L97.5969 22.25C98.5835 22.45 99.2902 22.79 99.7169 23.27C100.144 23.7366 100.357 24.3033 100.357 24.97C100.357 25.61 100.184 26.1833 99.8369 26.69C99.5035 27.1833 99.0035 27.5766 98.3369 27.87C97.6835 28.15 96.8769 28.29 95.9169 28.29Z" fill="white"/>
<path d="M105.182 15.03V24.83C105.182 25.31 105.302 25.6633 105.542 25.89C105.795 26.1033 106.135 26.21 106.562 26.21C106.895 26.21 107.189 26.1633 107.442 26.07C107.695 25.9633 107.922 25.8233 108.122 25.65L108.562 27.47C108.242 27.7233 107.842 27.9233 107.362 28.07C106.882 28.2166 106.375 28.29 105.842 28.29C105.175 28.29 104.582 28.19 104.062 27.99C103.555 27.79 103.155 27.47 102.862 27.03C102.582 26.59 102.442 26.0033 102.442 25.27V15.79L105.182 15.03ZM108.382 18.09V20.13H100.602V18.09H108.382Z" fill="white"/>
<path d="M115.133 21.71C115.133 21.1366 114.967 20.69 114.633 20.37C114.313 20.05 113.887 19.89 113.353 19.89C112.86 19.89 112.427 20.0166 112.053 20.27C111.68 20.5233 111.407 20.9433 111.233 21.53L108.893 20.81C109.12 19.93 109.613 19.2233 110.373 18.69C111.147 18.1566 112.18 17.89 113.473 17.89C114.353 17.89 115.12 18.03 115.773 18.31C116.427 18.5766 116.933 18.9833 117.293 19.53C117.667 20.0766 117.853 20.7633 117.853 21.59V25.65C117.853 26.1566 118.093 26.41 118.573 26.41C118.8 26.41 119.013 26.3766 119.213 26.31L119.053 28.01C118.707 28.1833 118.273 28.27 117.753 28.27C117.287 28.27 116.867 28.19 116.493 28.03C116.12 27.87 115.827 27.63 115.613 27.31C115.4 26.9766 115.293 26.5633 115.293 26.07V25.99L115.773 25.91C115.693 26.4166 115.473 26.85 115.113 27.21C114.753 27.5566 114.313 27.8233 113.793 28.01C113.287 28.1966 112.76 28.29 112.213 28.29C111.533 28.29 110.947 28.19 110.453 27.99C109.96 27.7766 109.58 27.47 109.313 27.07C109.047 26.67 108.913 26.1766 108.913 25.59C108.913 24.8433 109.153 24.2366 109.633 23.77C110.113 23.29 110.8 22.9633 111.693 22.79L115.453 22.03L115.433 23.73L113.033 24.21C112.58 24.3033 112.233 24.43 111.993 24.59C111.767 24.7366 111.653 24.9833 111.653 25.33C111.653 25.6633 111.773 25.9166 112.013 26.09C112.267 26.2633 112.567 26.35 112.913 26.35C113.193 26.35 113.467 26.3166 113.733 26.25C114 26.1833 114.24 26.0766 114.453 25.93C114.667 25.7833 114.833 25.5833 114.953 25.33C115.073 25.0766 115.133 24.77 115.133 24.41V21.71Z" fill="white"/>
<path d="M120.018 28.09V18.09H122.398L122.578 20.05C122.844 19.3566 123.231 18.8233 123.738 18.45C124.258 18.0766 124.904 17.89 125.678 17.89C125.904 17.89 126.111 17.91 126.298 17.95C126.484 17.99 126.638 18.0433 126.758 18.11L126.438 20.41C126.304 20.3566 126.138 20.3166 125.938 20.29C125.751 20.2633 125.504 20.25 125.198 20.25C124.798 20.25 124.411 20.35 124.038 20.55C123.664 20.7366 123.358 21.03 123.118 21.43C122.878 21.8166 122.758 22.31 122.758 22.91V28.09H120.018Z" fill="white"/>
<path d="M130.724 15.03V24.83C130.724 25.31 130.844 25.6633 131.084 25.89C131.337 26.1033 131.677 26.21 132.104 26.21C132.437 26.21 132.731 26.1633 132.984 26.07C133.237 25.9633 133.464 25.8233 133.664 25.65L134.104 27.47C133.784 27.7233 133.384 27.9233 132.904 28.07C132.424 28.2166 131.917 28.29 131.384 28.29C130.717 28.29 130.124 28.19 129.604 27.99C129.097 27.79 128.697 27.47 128.404 27.03C128.124 26.59 127.984 26.0033 127.984 25.27V15.79L130.724 15.03ZM133.924 18.09V20.13H126.144V18.09H133.924Z" fill="white"/>
<path d="M141.471 16.65C140.898 16.65 140.471 16.53 140.191 16.29C139.911 16.0366 139.771 15.67 139.771 15.19C139.771 14.6966 139.911 14.33 140.191 14.09C140.471 13.8366 140.898 13.71 141.471 13.71C142.044 13.71 142.471 13.8366 142.751 14.09C143.031 14.33 143.171 14.6966 143.171 15.19C143.171 15.67 143.031 16.0366 142.751 16.29C142.471 16.53 142.044 16.65 141.471 16.65ZM142.831 18.09V28.09H140.091V18.09H142.831Z" fill="white"/>
<path d="M144.836 28.09V18.09H147.296L147.456 21.09L147.116 20.77C147.276 20.1166 147.529 19.5766 147.876 19.15C148.222 18.7233 148.642 18.41 149.136 18.21C149.642 17.9966 150.196 17.89 150.796 17.89C151.489 17.89 152.102 18.0233 152.636 18.29C153.182 18.5566 153.609 18.9633 153.916 19.51C154.236 20.0433 154.396 20.7166 154.396 21.53V28.09H151.656V22.31C151.656 21.4566 151.489 20.87 151.156 20.55C150.822 20.2166 150.389 20.05 149.856 20.05C149.482 20.05 149.116 20.1433 148.756 20.33C148.409 20.5033 148.122 20.79 147.896 21.19C147.682 21.59 147.576 22.1233 147.576 22.79V28.09H144.836Z" fill="white"/>
<path d="M164.572 14.89V28.09H161.812V14.89H164.572Z" fill="white"/>
<path d="M177.543 14.89V17.11H173.123V28.09H170.363V17.11H165.923V14.89H177.543Z" fill="white"/>
<defs>
<linearGradient id="paint0_linear_616_1951" x1="6.51572" y1="35.8811" x2="17.6116" y2="24.7854" gradientUnits="userSpaceOnUse">
<stop stop-color="white" stop-opacity="0"/>
<stop offset="0.661458" stop-color="white"/>
</linearGradient>
<linearGradient id="paint1_linear_616_1951" x1="30.3096" y1="11.2578" x2="16.6704" y2="24.464" gradientUnits="userSpaceOnUse">
<stop offset="0.0003" stop-color="white"/>
<stop offset="0.0004" stop-color="white"/>
<stop offset="1" stop-color="#47E1AE"/>
</linearGradient>
<clipPath id="clip0_616_1951">
<rect width="42" height="42" fill="white"/>
</clipPath>
</defs>
</svg>
